<svg id="Warstwa_2" data-name="Warstwa 2" xmlns="http://www.w3.org/2000/svg" viewBox="0 0 160 40"><defs><style>.cls-1{fill:#ff6c2c;}</style></defs><g id="g2997"><g id="g3003"><path id="path3005" class="cls-1" d="M35.36,14.32h6.33l-1,3.75a2.4,2.4,0,0,1-.84,1.26,2.26,2.26,0,0,1-1.43.47H35.5a2.84,2.84,0,0,0-1.77.59A3,3,0,0,0,32.65,22a3,3,0,0,0,.5,2.61,2.93,2.93,0,0,0,1,.83,3,3,0,0,0,1.34.31h1.8a1,1,0,0,1,.82.4,1,1,0,0,1,.18.91l-1.12,4.14h-2a7.86,7.86,0,0,1-3.7-.88A8.33,8.33,0,0,1,28.71,28a8.2,8.2,0,0,1-1.43-7.13l.11-.42a8.21,8.21,0,0,1,1.13-2.48,8.13,8.13,0,0,1,4.16-3.17,8.06,8.06,0,0,1,2.68-.45"/></g><g id="g3007"><path id="path3009" class="cls-1" d="M38.55,31.19l5.52-20.65a2.31,2.31,0,0,1,2.26-1.73h5.85a7.9,7.9,0,0,1,3.71.88,8.35,8.35,0,0,1,4.35,5.65,7.87,7.87,0,0,1-.11,3.82l-.12.42a8.18,8.18,0,0,1-5.26,5.68,8,8,0,0,1-2.68.45H47l1-3.78a2.4,2.4,0,0,1,.84-1.23,2.26,2.26,0,0,1,1.43-.48H51.9a2.86,2.86,0,0,0,1.8-.61,3.06,3.06,0,0,0,1.1-3,3.25,3.25,0,0,0-.55-1.19,3.09,3.09,0,0,0-1-.84,2.91,2.91,0,0,0-1.34-.32H48.77L44.68,29.48a2.38,2.38,0,0,1-.84,1.24,2.25,2.25,0,0,1-1.4.47Z"/></g><g id="g3011"><path id="path3013" class="cls-1" d="M73.44,20.17l.09-.31a.45.45,0,0,0-.07-.38.44.44,0,0,0-.35-.15H64A2.33,2.33,0,0,1,63,19.08a2.29,2.29,0,0,1-.78-.66,2.18,2.18,0,0,1-.42-.94,2.24,2.24,0,0,1,0-1.09l.56-2.13H74.65a4.34,4.34,0,0,1,2.09.51,4.74,4.74,0,0,1,1.59,1.31,4.67,4.67,0,0,1,.86,1.86,4.56,4.56,0,0,1,0,2.17l-2.21,8.23a3.68,3.68,0,0,1-1.36,2,3.74,3.74,0,0,1-2.33.78l-9.1,0a4.82,4.82,0,0,1-3.86-1.89,5.09,5.09,0,0,1-.89-2A4.64,4.64,0,0,1,59.45,25l.12-.42a4.57,4.57,0,0,1,.65-1.46,4.9,4.9,0,0,1,2.45-1.89,5,5,0,0,1,1.6-.26H71.9l-.56,2.1a2.32,2.32,0,0,1-.83,1.23,2.29,2.29,0,0,1-1.4.47H65.69a.59.59,0,0,0-.61.48.55.55,0,0,0,.11.54.62.62,0,0,0,.5.24H71.2a.83.83,0,0,0,.54-.17.72.72,0,0,0,.28-.44l0-.23Z"/></g><g id="g3015"><path id="path3017" class="cls-1" d="M89.73,14.32a7.92,7.92,0,0,1,3.73.88,8.33,8.33,0,0,1,2.81,2.34,8.2,8.2,0,0,1,1.53,3.33,7.91,7.91,0,0,1-.13,3.83L96.27,30a1.54,1.54,0,0,1-.6.9,1.72,1.72,0,0,1-1,.33h-3a1,1,0,0,1-1-1.31l1.68-6.35a2.81,2.81,0,0,0,0-1.38A3,3,0,0,0,91.8,21a2.86,2.86,0,0,0-1-.84,2.8,2.8,0,0,0-1.34-.33H86.31L83.6,30a1.54,1.54,0,0,1-.6.9,1.77,1.77,0,0,1-1,.33H79a1,1,0,0,1-.82-.4,1,1,0,0,1-.18-.91l4.14-15.56Z"/></g><g id="g3019"><path id="path3021" class="cls-1" d="M106.21,19.65a1.4,1.4,0,0,0-.48.69l-1.26,4.75a.8.8,0,0,0,.14.73.81.81,0,0,0,.67.34h11.59l-.9,3.32a2.38,2.38,0,0,1-.84,1.24,2.27,2.27,0,0,1-1.4.47H103.18a4.44,4.44,0,0,1-2.09-.49,4.52,4.52,0,0,1-1.59-1.31,5,5,0,0,1-.86-1.88,4.21,4.21,0,0,1,.07-2.14l1.7-6.35a6.44,6.44,0,0,1,.87-1.9,6.33,6.33,0,0,1,5.23-2.8H114a4.46,4.46,0,0,1,2.1.5,4.85,4.85,0,0,1,1.58,1.32,4.52,4.52,0,0,1,.86,1.87,4.65,4.65,0,0,1-.06,2.16l-.5,1.9a3.67,3.67,0,0,1-1.36,2,3.76,3.76,0,0,1-2.31.77h-8.45l.56-2.07a2.17,2.17,0,0,1,.81-1.23,2.26,2.26,0,0,1,1.43-.48h3.41a.6.6,0,0,0,.62-.47l.11-.42a.59.59,0,0,0-.11-.56.61.61,0,0,0-.5-.26H107a1.15,1.15,0,0,0-.75.27"/></g><g id="g3023"><path id="path3025" class="cls-1" d="M116.84,31.19l5.62-21.12a1.54,1.54,0,0,1,.6-.91,1.72,1.72,0,0,1,1-.35h3a1,1,0,0,1,.85.4,1,1,0,0,1,.18.91l-4.2,15.59A6.85,6.85,0,0,1,123,28a7.59,7.59,0,0,1-1.62,1.72,7.78,7.78,0,0,1-2.09,1.12,7.11,7.11,0,0,1-2.4.4"/></g><g id="g3027"><path id="path3029" class="cls-1" d="M130.75,10.65H131a.52.52,0,0,0,.33-.11.34.34,0,0,0,.12-.27.31.31,0,0,0-.11-.27.55.55,0,0,0-.35-.08h-.27Zm1.11-.39a.61.61,0,0,1-.11.36.6.6,0,0,1-.3.24l.6,1h-.42l-.53-.9h-.35v.9h-.37V9.59H131a1,1,0,0,1,.62.17.63.63,0,0,1,.2.5m-2.43.47a1.68,1.68,0,0,0,.22.82,1.62,1.62,0,0,0,.61.61,1.71,1.71,0,0,0,.82.22,1.62,1.62,0,0,0,.83-.23,1.57,1.57,0,0,0,.6-.6,1.55,1.55,0,0,0,.22-.82,1.61,1.61,0,0,0-.22-.83,1.72,1.72,0,0,0-.6-.6,1.66,1.66,0,0,0-1.65,0,1.64,1.64,0,0,0-.6.6,1.6,1.6,0,0,0-.23.83m-.27,0a1.92,1.92,0,0,1,.26-1,1.93,1.93,0,0,1,1.66-1,1.91,1.91,0,0,1,1,.25,1.88,1.88,0,0,1,.7.7,1.93,1.93,0,0,1,.26,1,1.84,1.84,0,0,1-.25.94,1.88,1.88,0,0,1-.69.71,2,2,0,0,1-1.95,0,1.91,1.91,0,0,1-.7-.71,1.94,1.94,0,0,1-.25-.94"/></g></g></svg>